@startuml
set namespaceSeparator ?
hide circle
hide class fields

package IG #DDDDDD{

     package Profiles #DDDDDD{

        class ActorPS{

             ActorPS => [None..None]
             ActorPS.XCN1 => [None..None]
             ActorPS.XCN1.value[x] => [None..None]
             ActorPS.XCN2 => [None..None]
             ActorPS.XCN3 => [None..None]
             ActorPS.XCN9.composant2 => [None..None]
             ActorPS.XCN10 => [None..None]
             ActorPS.XCN13 => [None..None]
        } 

        class ActorPatient{

             ActorPatient => [None..None]
             ActorPatient.XCN1 => [None..None]
             ActorPatient.XCN1.value[x] => [None..None]
             ActorPatient.XCN2 => [None..None]
             ActorPatient.XCN3 => [None..None]
             ActorPatient.XCN9.composant2 => [None..None]
             ActorPatient.XCN10 => [None..None]
             ActorPatient.XCN13 => [None..None]
        } 

        class ActorSNR{

             ActorSNR => [None..None]
             ActorSNR.XCN1 => [None..None]
             ActorSNR.XCN1.value[x] => [None..None]
             ActorSNR.XCN2 => [None..None]
             ActorSNR.XCN3 => [None..None]
             ActorSNR.XCN9.composant2 => [None..None]
             ActorSNR.XCN10 => [None..None]
             ActorSNR.XCN13 => [None..None]
        } 

        class ActorSystem{

             ActorSystem => [None..None]
             ActorSystem.XCN1 => [None..None]
             ActorSystem.XCN1.value[x] => [None..None]
             ActorSystem.XCN2 => [None..None]
             ActorSystem.XCN3 => [None..None]
             ActorSystem.XCN9.composant2 => [None..None]
             ActorSystem.XCN10 => [None..None]
             ActorSystem.XCN13 => [None..None]
        } 

        class ActorXDS{

             ActorXDS => [None..None]
             ActorXDS.XCN1 => [1..1]
             ActorXDS.XCN2 => [1..1]
             ActorXDS.XCN3 => [1..1]
             ActorXDS.XCN9 => [1..1]
             ActorXDS.XCN9.composant1 => [0..0]
             ActorXDS.XCN9.composant2 => [1..1]
             ActorXDS.XCN9.composant3 => [1..1]
             ActorXDS.XCN10 => [1..1]
             ActorXDS.XCN13 => [1..1]
        } 

        class Author{

             Author => [None..None]
             Author.institution => [0..1]
             Author.person[x] => [1..1]
             Author.role => [0..*]
             Author.specialty => [0..1]
        } 

        class AuthorDocumentEntry{

             AuthorDocumentEntry => [None..None]
             AuthorDocumentEntry.institution => [None..None]
             AuthorDocumentEntry.person[x] => [None..None]
             AuthorDocumentEntry.role => [None..None]
             AuthorDocumentEntry.specialty => [None..None]
        } 

        class AuthorInstitution{

             AuthorInstitution => [None..None]
             AuthorInstitution.XON1 => [1..1]
             AuthorInstitution.XON6 => [1..1]
             AuthorInstitution.XON6.composant1 => [0..0]
             AuthorInstitution.XON6.composant2 => [1..1]
             AuthorInstitution.XON6.composant3 => [1..1]
             AuthorInstitution.XON7 => [1..1]
             AuthorInstitution.XON10 => [1..1]
        } 

        class AuthorSubmissionSet{

             AuthorSubmissionSet => [None..None]
             AuthorSubmissionSet.institution => [None..None]
             AuthorSubmissionSet.person[x] => [None..None]
             AuthorSubmissionSet.role => [None..None]
        } 

        class DocumentEntry{

             DocumentEntry => [None..None]
             DocumentEntry.entryUUID => [1..1]
             DocumentEntry.logicalId => [1..1]
             DocumentEntry.mimeType => [1..1]
             DocumentEntry.availabilityStatus => [1..1]
             DocumentEntry.hash => [1..1]
             DocumentEntry.size => [1..1]
             DocumentEntry.languageCode => [1..1]
             DocumentEntry.author => [1..*]
             DocumentEntry.legalAuthenticator[x] => [1..1]
             DocumentEntry.repositoryUniqueId => [1..1]
             DocumentEntry.serviceStartTime => [1..1]
             DocumentEntry.serviceEndTime => [0..1]
             DocumentEntry.sourcePatientID => [1..1]
             DocumentEntry.sourcePatientInfo => [1..1]
             DocumentEntry.URI => [1..1]
             DocumentEntry.title => [1..1]
             DocumentEntry.comments => [0..1]
             DocumentEntry.patientID => [1..1]
             DocumentEntry.uniqueId => [1..1]
             DocumentEntry.class => [1..1]
             DocumentEntry.confidentiality => [1..4]
             DocumentEntry.eventCodeList => [0..*]
             DocumentEntry.format => [1..1]
             DocumentEntry.healthcareFacilityTypeCode => [1..1]
             DocumentEntry.practiceSetting => [1..1]
             DocumentEntry.type => [1..1]
             DocumentEntry.documentAvailability => [0..1]
             DocumentEntry.homeCommunityId => [0..1]
             DocumentEntry.creationTime => [1..1]
             DocumentEntry.referenceIdList => [0..*]
             DocumentEntry.referenceIdList.CX1 => [1..1]
             DocumentEntry.referenceIdList.CX4 => [1..1]
             DocumentEntry.referenceIdList.CX5 => [1..1]
             DocumentEntry.version => [0..1]
        } 

        class EventCode{

             EventCode => [None..None]
             EventCode.eventCode => [1..1]
        } 

        class Folder{

             Folder => [None..None]
             Folder.availabilityStatus => [1..1]
             Folder.codeList => [1..*]
             Folder.comments => [0..1]
             Folder.entryUUID => [1..1]
             Folder.lastUpdateTime => [1..1]
             Folder.patientID => [1..1]
             Folder.title => [1..1]
             Folder.uniqueId => [1..1]
             Folder.homeCommunityId => [0..1]
             Folder.logicalId => [1..1]
             Folder.version => [0..1]
        } 

        class Identifiant{

             Identifiant => [None..None]
             Identifiant.value[x] => [1..1]
        } 

        class IdentifiantSysteme{

        } 

        class MatriculeINS{

             MatriculeINS => [None..None]
             MatriculeINS.matriculeINS => [1..1]
        } 

        class PSIdNat{

             PSIdNat => [None..None]
             PSIdNat.PSIdNat => [1..1]
        } 

        class PatientId{

             PatientId => [None..None]
             PatientId.CX1 => [1..1]
             PatientId.CX4 => [1..1]
             PatientId.CX5 => [1..1]
        } 

        class SNR{

             SNR => [None..None]
             SNR.SNR => [1..1]
        } 

        class SourcePatientId{

             SourcePatientId => [None..None]
             SourcePatientId.CX1 => [1..1]
             SourcePatientId.CX4 => [1..1]
             SourcePatientId.CX5 => [1..1]
        } 

        class SourcePatientInfo{

             SourcePatientInfo => [None..None]
             SourcePatientInfo.PID3 => [0..1]
             SourcePatientInfo.PID5 => [1..*]
             SourcePatientInfo.PID7 => [0..1]
             SourcePatientInfo.PID8 => [0..1]
             SourcePatientInfo.PID11 => [0..1]
             SourcePatientInfo.PID13 => [0..1]
             SourcePatientInfo.PID14 => [0..1]
             SourcePatientInfo.PID15 => [0..1]
             SourcePatientInfo.PID16 => [0..1]
             SourcePatientInfo.PID18 => [0..1]
             SourcePatientInfo.PID21 => [0..1]
        } 

        class StructIdNat{

             StructIdNat => [None..None]
             StructIdNat.StructIdNat => [1..1]
        } 

        class SubmissionSet{

             SubmissionSet => [None..None]
             SubmissionSet.entryUUID => [1..1]
             SubmissionSet.availabilityStatus => [1..1]
             SubmissionSet.submissionTime => [1..1]
             SubmissionSet.title => [0..1]
             SubmissionSet.comments => [0..1]
             SubmissionSet.patientID => [1..1]
             SubmissionSet.sourceID => [1..1]
             SubmissionSet.uniqueID => [1..1]
             SubmissionSet.contentTypeCode => [1..1]
             SubmissionSet.author => [1..1]
             SubmissionSet.homeCommunityID => [0..1]
             SubmissionSet.intendedRecipient => [0..*]
         }

     }
     package extension #paleturquoise {


         }
     }
     package valueset #PaleVioletRed{
       }

package "Ressources de base" #palegreen {

 class "https://interop.esante.gouv.fr/ig/fhir/pdsm4dmp/StructureDefinition/ActorXDS" as  classb1fa6044c54073490b5e2804c2a7a77e 

    classb1fa6044c54073490b5e2804c2a7a77e --> ActorPS

 class "https://interop.esante.gouv.fr/ig/fhir/pdsm4dmp/StructureDefinition/ActorXDS" as  classb1fa6044c54073490b5e2804c2a7a77e 

    classb1fa6044c54073490b5e2804c2a7a77e --> ActorPatient

 class "https://interop.esante.gouv.fr/ig/fhir/pdsm4dmp/StructureDefinition/ActorXDS" as  classb1fa6044c54073490b5e2804c2a7a77e 

    classb1fa6044c54073490b5e2804c2a7a77e --> ActorSNR

 class "https://interop.esante.gouv.fr/ig/fhir/pdsm4dmp/StructureDefinition/ActorXDS" as  classb1fa6044c54073490b5e2804c2a7a77e 

    classb1fa6044c54073490b5e2804c2a7a77e --> ActorSystem

 class "Base" as  class095a1b43effec73955e31e790438de49 

    class095a1b43effec73955e31e790438de49 --> ActorXDS

 class "Base" as  class095a1b43effec73955e31e790438de49 

    class095a1b43effec73955e31e790438de49 --> Author

 class "https://interop.esante.gouv.fr/ig/fhir/pdsm4dmp/StructureDefinition/Author" as  classc2475048e2c7036063c8904a63957e62 

    classc2475048e2c7036063c8904a63957e62 --> AuthorDocumentEntry

 class "Base" as  class095a1b43effec73955e31e790438de49 

    class095a1b43effec73955e31e790438de49 --> AuthorInstitution

 class "https://interop.esante.gouv.fr/ig/fhir/pdsm4dmp/StructureDefinition/Author" as  classc2475048e2c7036063c8904a63957e62 

    classc2475048e2c7036063c8904a63957e62 --> AuthorSubmissionSet

 class "Base" as  class095a1b43effec73955e31e790438de49 

    class095a1b43effec73955e31e790438de49 --> DocumentEntry

 class "Base" as  class095a1b43effec73955e31e790438de49 

    class095a1b43effec73955e31e790438de49 --> EventCode

 class "Base" as  class095a1b43effec73955e31e790438de49 

    class095a1b43effec73955e31e790438de49 --> Folder

 class "Base" as  class095a1b43effec73955e31e790438de49 

    class095a1b43effec73955e31e790438de49 --> Identifiant

 class "string" as  classb45cffe084dd3d20d928bee85e7b0f21 

    classb45cffe084dd3d20d928bee85e7b0f21 --> IdentifiantSysteme

 class "Base" as  class095a1b43effec73955e31e790438de49 

    class095a1b43effec73955e31e790438de49 --> MatriculeINS

 class "Base" as  class095a1b43effec73955e31e790438de49 

    class095a1b43effec73955e31e790438de49 --> PSIdNat

 class "Base" as  class095a1b43effec73955e31e790438de49 

    class095a1b43effec73955e31e790438de49 --> PatientId

 class "Base" as  class095a1b43effec73955e31e790438de49 

    class095a1b43effec73955e31e790438de49 --> SNR

 class "Base" as  class095a1b43effec73955e31e790438de49 

    class095a1b43effec73955e31e790438de49 --> SourcePatientId

 class "Base" as  class095a1b43effec73955e31e790438de49 

    class095a1b43effec73955e31e790438de49 --> SourcePatientInfo

 class "Base" as  class095a1b43effec73955e31e790438de49 

    class095a1b43effec73955e31e790438de49 --> StructIdNat

 class "Base" as  class095a1b43effec73955e31e790438de49 

    class095a1b43effec73955e31e790438de49 --> SubmissionSet
}
@enduml